<?xml version="1.0" encoding="UTF-8"?>
<svg id="svg8" width="210mm" height="180mm" version="1.1" viewBox="0 0 210 180" xmlns="http://www.w3.org/2000/svg">
 <title id="title899">backend illustration vector art</title>
 <g id="layer1" fill="none">
  <g id="g841" transform="translate(-.75595 -129.27)" stroke="#20cc93">
   <rect id="rect835" x="11.339" y="143.63" width="189.74" height="130.02" ry=".12179" stroke-width="4.5"/>
   <rect id="rect837" x="13.828" y="165.87" width="184.85" height=".15579" ry=".040158" stroke-width="4.8167"/>
  </g>
  <g stroke-width="4.5">
   <circle id="path851" cx="185.53" cy="25.481" r="5.8799" stroke="#f8003b"/>
   <circle id="circle853" cx="164.93" cy="25.481" r="5.8799" stroke="#f8b500"/>
   <circle id="circle855" cx="144.68" cy="25.481" r="5.8799" stroke="#00f814"/>
  </g>
  <g stroke="#20cc93">
   <rect id="rect857" x="23.435" y="49.305" width="62.744" height=".37798" ry=".12179" stroke-width="4.5"/>
   <rect id="rect859" x="97.258" y="49.362" width="94.702" height=".26335" ry=".084854" stroke-width="4.6146"/>
   <rect id="rect861" x="153.44" y="61.599" width="38.042" height=".37798" ry=".12179" stroke-width="3.504"/>
   <rect id="rect863" x="72.048" y="61.727" width="71.866" height=".38944" ry=".12548" stroke-width="4.8885"/>
   <rect id="rect865" x="23.032" y="61.826" width="37.899" height=".45897" ry=".14788" stroke-width="3.8539"/>
   <rect id="rect867" x="22.301" y="73.873" width="62.744" height=".37798" ry=".12179" stroke-width="4.5"/>
   <rect id="rect869" x="96.124" y="73.93" width="94.702" height=".26335" ry=".084854" stroke-width="4.6146"/>
   <rect id="rect871" x="152.31" y="86.167" width="38.042" height=".37798" ry=".12179" stroke-width="3.504"/>
   <rect id="rect873" x="70.914" y="86.295" width="71.866" height=".38944" ry=".12548" stroke-width="4.8885"/>
   <rect id="rect875" x="21.898" y="86.394" width="37.899" height=".45897" ry=".14788" stroke-width="3.8539"/>
   <rect id="rect877" x="21.923" y="98.064" width="62.744" height=".37798" ry=".12179" stroke-width="4.5"/>
   <rect id="rect879" x="95.746" y="98.121" width="94.702" height=".26335" ry=".084854" stroke-width="4.6146"/>
   <rect id="rect881" x="151.93" y="110.36" width="38.042" height=".37798" ry=".12179" stroke-width="3.504"/>
   <rect id="rect883" x="70.536" y="110.49" width="71.866" height=".38944" ry=".12548" stroke-width="4.8885"/>
   <rect id="rect885" x="21.52" y="110.58" width="37.899" height=".45897" ry=".14788" stroke-width="3.8539"/>
   <rect id="rect887" x="22.679" y="121.12" width="62.744" height=".37798" ry=".12179" stroke-width="4.5"/>
   <rect id="rect889" x="96.502" y="121.18" width="94.702" height=".26335" ry=".084854" stroke-width="4.6146"/>
   <rect id="rect891" x="152.68" y="133.41" width="38.042" height=".37798" ry=".12179" stroke-width="3.504"/>
   <rect id="rect893" x="71.292" y="133.54" width="71.866" height=".38944" ry=".12548" stroke-width="4.8885"/>
   <rect id="rect895" x="22.276" y="133.64" width="37.899" height=".45897" ry=".14788" stroke-width="3.8539"/>
  </g>
 </g>
</svg>
