<?xml version="1.0" encoding="UTF-8" standalone="no"?>
<svg
   xmlns:dc="http://purl.org/dc/elements/1.1/"
   xmlns:cc="http://creativecommons.org/ns#"
   xmlns:rdf="http://www.w3.org/1999/02/22-rdf-syntax-ns#"
   xmlns:svg="http://www.w3.org/2000/svg"
   xmlns="http://www.w3.org/2000/svg"
   xmlns:sodipodi="http://sodipodi.sourceforge.net/DTD/sodipodi-0.dtd"
   xmlns:inkscape="http://www.inkscape.org/namespaces/inkscape"
   id="svg8"
   width="210mm"
   height="180mm"
   version="1.1"
   viewBox="0 0 210 180"
   sodipodi:docname="Backend.svg"
   inkscape:version="1.0.2 (e86c870879, 2021-01-15, custom)">
  <metadata
     id="metadata870">
    <rdf:RDF>
      <cc:Work
         rdf:about="">
        <dc:format>image/svg+xml</dc:format>
        <dc:type
           rdf:resource="http://purl.org/dc/dcmitype/StillImage" />
      </cc:Work>
    </rdf:RDF>
  </metadata>
  <defs
     id="defs868" />
  <sodipodi:namedview
     pagecolor="#ffffff"
     bordercolor="#666666"
     borderopacity="1"
     objecttolerance="10"
     gridtolerance="10"
     guidetolerance="10"
     inkscape:pageopacity="0"
     inkscape:pageshadow="2"
     inkscape:window-width="1366"
     inkscape:window-height="705"
     id="namedview866"
     showgrid="false"
     showguides="false"
     inkscape:zoom="0.26764074"
     inkscape:cx="253.13857"
     inkscape:cy="43.210256"
     inkscape:window-x="-8"
     inkscape:window-y="-8"
     inkscape:window-maximized="1"
     inkscape:current-layer="svg8"
     inkscape:document-rotation="0" />
  <title
     id="title899">backend illustration vector art</title>
  <g
     id="g841"
     transform="translate(-0.75595,-129.27)"
     stroke="#20cc93"
     style="fill:none">
    <rect
       id="rect835"
       x="11.339"
       y="143.63"
       width="189.74001"
       height="130.02"
       ry="0.12179"
       stroke-width="4.5" />
    <rect
       id="rect837"
       x="13.828"
       y="165.87"
       width="184.85001"
       height="0.15579"
       ry="0.040158"
       stroke-width="4.8167" />
  </g>
  <g
     stroke-width="4.5"
     id="g840"
     style="fill:none">
    <circle
       id="path851"
       cx="185.53"
       cy="25.481001"
       r="5.8799"
       stroke="#f8003b" />
    <circle
       id="circle853"
       cx="164.92999"
       cy="25.481001"
       r="5.8799"
       stroke="#f8b500" />
    <circle
       id="circle855"
       cx="144.67999"
       cy="25.481001"
       r="5.8799"
       stroke="#00f814" />
  </g>
  <rect
     id="rect861"
     x="136.39395"
     y="61.598999"
     width="55.088047"
     height="0.37797999"
     ry="0.12179"
     stroke-width="4.21659"
     style="fill:none;stroke:#20cc93" />
  <rect
     id="rect865"
     x="23.003988"
     y="61.797989"
     width="32.801373"
     height="0.51499265"
     ry="0.16593051"
     stroke-width="3.79788"
     style="fill:none;stroke:#20cc93" />
  <rect
     id="rect867"
     x="22.074507"
     y="73.646507"
     width="23.083361"
     height="0.83097011"
     ry="0.26774925"
     stroke-width="4.04701"
     style="fill:none;stroke:#20cc93" />
  <rect
     id="rect869"
     x="143.2569"
     y="73.93"
     width="47.569096"
     height="0.26335001"
     ry="0.084853999"
     stroke-width="3.27052"
     style="fill:none;stroke:#20cc93" />
  <rect
     id="rect871"
     x="152.31"
     y="86.167"
     width="38.042"
     height="0.37797999"
     ry="0.12179"
     stroke-width="3.504"
     style="fill:none;stroke:#20cc93" />
  <rect
     id="rect875"
     x="21.875713"
     y="86.371712"
     width="33.749401"
     height="0.50354767"
     ry="0.1622429"
     stroke-width="3.80932"
     style="fill:none;stroke:#20cc93" />
  <rect
     id="rect877"
     x="21.826666"
     y="97.967667"
     width="38.07748"
     height="0.57064408"
     ry="0.18386883"
     stroke-width="4.30734"
     style="fill:none;stroke:#20cc93" />
  <rect
     id="rect879"
     x="165.20541"
     y="98.121002"
     width="25.242592"
     height="0.26335001"
     ry="0.084853999"
     stroke-width="2.38244"
     style="fill:none;stroke:#20cc93" />
  <rect
     id="rect881"
     x="163.25365"
     y="110.36"
     width="26.71834"
     height="0.37797999"
     ry="0.12179"
     stroke-width="2.93655"
     style="fill:none;stroke:#20cc93" />
  <rect
     id="rect885"
     x="21.355412"
     y="110.41542"
     width="18.460909"
     height="0.78814834"
     ry="0.25394115"
     stroke-width="3.52473"
     style="fill:none;stroke:#20cc93" />
  <rect
     id="rect887"
     x="22.679001"
     y="121.12"
     width="62.743999"
     height="0.37797999"
     ry="0.12179"
     stroke-width="4.5"
     style="fill:none;stroke:#20cc93" />
  <rect
     id="rect889"
     x="127.61839"
     y="123.0687"
     width="67.045639"
     height="3.8118172"
     ry="1.2282056"
     stroke-width="14.772"
     style="fill:#20cc93;fill-opacity:1;stroke:none" />
  <rect
     id="rect891"
     x="152.67999"
     y="133.41"
     width="38.042"
     height="0.37797999"
     ry="0.12179"
     stroke-width="3.504"
     style="fill:none;stroke:#20cc93" />
  <rect
     id="rect893"
     x="71.292"
     y="133.53999"
     width="71.865997"
     height="0.38944"
     ry="0.12548"
     stroke-width="4.8885"
     style="fill:none;stroke:#20cc93" />
  <rect
     id="rect895"
     x="22.275999"
     y="133.64"
     width="37.898998"
     height="0.45897001"
     ry="0.14788"
     stroke-width="3.8539"
     style="fill:none;stroke:#20cc93" />
  <g
     id="g970"
     transform="matrix(0.2753782,0,0,0.2753782,117.81467,85.146228)"
     style="fill:#20cc93;fill-opacity:1">
    <path
       d="M 64,39 A 25,25 0 1 0 89,64 25,25 0 0 0 64,39 Z m 0,44 A 19,19 0 1 1 83,64 19,19 0 0 1 64,83 Z"
       id="path966"
       style="fill:#20cc93;fill-opacity:1" />
    <path
       d="m 121,48 h -8.93 a 1,1 0 0 1 -0.94,-0.68 49.9,49.9 0 0 0 -2,-4.85 1,1 0 0 1 0.18,-1.15 L 115.62,35 a 7,7 0 0 0 0,-9.9 L 102.89,12.38 a 7,7 0 0 0 -9.9,0 l -6.31,6.31 a 1,1 0 0 1 -1.15,0.18 49.76,49.76 0 0 0 -4.85,-2 A 1,1 0 0 1 80,15.93 V 7 A 7,7 0 0 0 73,0 H 55 a 7,7 0 0 0 -7,7 v 8.93 a 1,1 0 0 1 -0.68,0.94 49.9,49.9 0 0 0 -4.85,2 1,1 0 0 1 -1.15,-0.18 L 35,12.38 a 7,7 0 0 0 -9.9,0 L 12.38,25.11 a 7,7 0 0 0 0,9.9 l 6.31,6.31 a 1,1 0 0 1 0.18,1.15 49.76,49.76 0 0 0 -2,4.85 A 1,1 0 0 1 15.93,48 H 7 a 7,7 0 0 0 -7,7 v 18 a 7,7 0 0 0 7,7 h 8.93 a 1,1 0 0 1 0.94,0.68 49.9,49.9 0 0 0 2,4.85 1,1 0 0 1 -0.18,1.15 L 12.38,93 a 7,7 0 0 0 0,9.9 l 12.73,12.73 a 7,7 0 0 0 9.9,0 l 6.31,-6.31 a 1,1 0 0 1 1.15,-0.18 49.76,49.76 0 0 0 4.85,2 1,1 0 0 1 0.68,0.94 V 121 a 7,7 0 0 0 7,7 h 18 a 7,7 0 0 0 7,-7 v -8.93 a 1,1 0 0 1 0.68,-0.94 49.9,49.9 0 0 0 4.85,-2 1,1 0 0 1 1.15,0.18 l 6.32,6.31 a 7,7 0 0 0 9.9,0 l 12.73,-12.73 a 7,7 0 0 0 0,-9.9 l -6.31,-6.31 a 1,1 0 0 1 -0.18,-1.15 49.76,49.76 0 0 0 2,-4.85 1,1 0 0 1 0.94,-0.68 H 121 a 7,7 0 0 0 7,-7 V 55 a 7,7 0 0 0 -7,-7 z m 1,25 a 1,1 0 0 1 -1,1 h -8.93 a 7,7 0 0 0 -6.6,4.69 43.9,43.9 0 0 1 -1.76,4.26 7,7 0 0 0 1.35,8 l 6.31,6.31 a 1,1 0 0 1 0,1.41 l -12.72,12.71 a 1,1 0 0 1 -1.41,0 l -6.31,-6.31 a 7,7 0 0 0 -8,-1.35 43.88,43.88 0 0 1 -4.27,1.76 7,7 0 0 0 -4.68,6.6 V 121 a 1,1 0 0 1 -1,1 H 55 a 1,1 0 0 1 -1,-1 v -8.93 a 7,7 0 0 0 -4.69,-6.6 43.9,43.9 0 0 1 -4.26,-1.76 7,7 0 0 0 -8,1.35 l -6.31,6.31 a 1,1 0 0 1 -1.41,0 L 16.62,98.65 a 1,1 0 0 1 0,-1.41 l 6.31,-6.31 a 7,7 0 0 0 1.35,-8 A 43.88,43.88 0 0 1 22.52,78.66 7,7 0 0 0 15.93,74 H 7 A 1,1 0 0 1 6,73 V 55 a 1,1 0 0 1 1,-1 h 8.93 a 7,7 0 0 0 6.6,-4.69 43.9,43.9 0 0 1 1.76,-4.26 7,7 0 0 0 -1.35,-8 l -6.31,-6.31 a 1,1 0 0 1 0,-1.41 L 29.35,16.62 a 1,1 0 0 1 1.41,0 l 6.31,6.31 a 7,7 0 0 0 8,1.35 43.88,43.88 0 0 1 4.27,-1.76 A 7,7 0 0 0 54,15.93 V 7 a 1,1 0 0 1 1,-1 h 18 a 1,1 0 0 1 1,1 v 8.93 a 7,7 0 0 0 4.69,6.6 43.9,43.9 0 0 1 4.26,1.76 7,7 0 0 0 8,-1.35 l 6.31,-6.31 a 1,1 0 0 1 1.41,0 l 12.73,12.73 a 1,1 0 0 1 0,1.41 l -6.31,6.31 a 7,7 0 0 0 -1.35,8 43.88,43.88 0 0 1 1.76,4.27 7,7 0 0 0 6.6,4.68 h 8.9 a 1,1 0 0 1 1,1 z"
       id="path968"
       style="fill:#20cc93;fill-opacity:1" />
  </g>
  <g
     id="g978"
     transform="matrix(0.46924956,0,0,0.46924956,65.607898,40.659891)"
     style="fill:#20cc93;fill-opacity:1">
    <path
       d="M 64,39 A 25,25 0 1 0 89,64 25,25 0 0 0 64,39 Z m 0,44 A 19,19 0 1 1 83,64 19,19 0 0 1 64,83 Z"
       id="path974"
       style="fill:#20cc93;fill-opacity:1" />
    <path
       d="m 121,48 h -8.93 a 1,1 0 0 1 -0.94,-0.68 49.9,49.9 0 0 0 -2,-4.85 1,1 0 0 1 0.18,-1.15 L 115.62,35 a 7,7 0 0 0 0,-9.9 L 102.89,12.38 a 7,7 0 0 0 -9.9,0 l -6.31,6.31 a 1,1 0 0 1 -1.15,0.18 49.76,49.76 0 0 0 -4.85,-2 A 1,1 0 0 1 80,15.93 V 7 A 7,7 0 0 0 73,0 H 55 a 7,7 0 0 0 -7,7 v 8.93 a 1,1 0 0 1 -0.68,0.94 49.9,49.9 0 0 0 -4.85,2 1,1 0 0 1 -1.15,-0.18 L 35,12.38 a 7,7 0 0 0 -9.9,0 L 12.38,25.11 a 7,7 0 0 0 0,9.9 l 6.31,6.31 a 1,1 0 0 1 0.18,1.15 49.76,49.76 0 0 0 -2,4.85 A 1,1 0 0 1 15.93,48 H 7 a 7,7 0 0 0 -7,7 v 18 a 7,7 0 0 0 7,7 h 8.93 a 1,1 0 0 1 0.94,0.68 49.9,49.9 0 0 0 2,4.85 1,1 0 0 1 -0.18,1.15 L 12.38,93 a 7,7 0 0 0 0,9.9 l 12.73,12.73 a 7,7 0 0 0 9.9,0 l 6.31,-6.31 a 1,1 0 0 1 1.15,-0.18 49.76,49.76 0 0 0 4.85,2 1,1 0 0 1 0.68,0.94 V 121 a 7,7 0 0 0 7,7 h 18 a 7,7 0 0 0 7,-7 v -8.93 a 1,1 0 0 1 0.68,-0.94 49.9,49.9 0 0 0 4.85,-2 1,1 0 0 1 1.15,0.18 l 6.32,6.31 a 7,7 0 0 0 9.9,0 l 12.73,-12.73 a 7,7 0 0 0 0,-9.9 l -6.31,-6.31 a 1,1 0 0 1 -0.18,-1.15 49.76,49.76 0 0 0 2,-4.85 1,1 0 0 1 0.94,-0.68 H 121 a 7,7 0 0 0 7,-7 V 55 a 7,7 0 0 0 -7,-7 z m 1,25 a 1,1 0 0 1 -1,1 h -8.93 a 7,7 0 0 0 -6.6,4.69 43.9,43.9 0 0 1 -1.76,4.26 7,7 0 0 0 1.35,8 l 6.31,6.31 a 1,1 0 0 1 0,1.41 l -12.72,12.71 a 1,1 0 0 1 -1.41,0 l -6.31,-6.31 a 7,7 0 0 0 -8,-1.35 43.88,43.88 0 0 1 -4.27,1.76 7,7 0 0 0 -4.68,6.6 V 121 a 1,1 0 0 1 -1,1 H 55 a 1,1 0 0 1 -1,-1 v -8.93 a 7,7 0 0 0 -4.69,-6.6 43.9,43.9 0 0 1 -4.26,-1.76 7,7 0 0 0 -8,1.35 l -6.31,6.31 a 1,1 0 0 1 -1.41,0 L 16.62,98.65 a 1,1 0 0 1 0,-1.41 l 6.31,-6.31 a 7,7 0 0 0 1.35,-8 A 43.88,43.88 0 0 1 22.52,78.66 7,7 0 0 0 15.93,74 H 7 A 1,1 0 0 1 6,73 V 55 a 1,1 0 0 1 1,-1 h 8.93 a 7,7 0 0 0 6.6,-4.69 43.9,43.9 0 0 1 1.76,-4.26 7,7 0 0 0 -1.35,-8 l -6.31,-6.31 a 1,1 0 0 1 0,-1.41 L 29.35,16.62 a 1,1 0 0 1 1.41,0 l 6.31,6.31 a 7,7 0 0 0 8,1.35 43.88,43.88 0 0 1 4.27,-1.76 A 7,7 0 0 0 54,15.93 V 7 a 1,1 0 0 1 1,-1 h 18 a 1,1 0 0 1 1,1 v 8.93 a 7,7 0 0 0 4.69,6.6 43.9,43.9 0 0 1 4.26,1.76 7,7 0 0 0 8,-1.35 l 6.31,-6.31 a 1,1 0 0 1 1.41,0 l 12.73,12.73 a 1,1 0 0 1 0,1.41 l -6.31,6.31 a 7,7 0 0 0 -1.35,8 43.88,43.88 0 0 1 1.76,4.27 7,7 0 0 0 6.6,4.68 h 8.9 a 1,1 0 0 1 1,1 z"
       id="path976"
       style="fill:#20cc93;fill-opacity:1" />
  </g>
  <rect
     id="rect980"
     x="127.13464"
     y="48.272587"
     width="68.228394"
     height="3.8118172"
     ry="1.2282056"
     stroke-width="14.9017"
     style="fill:#20cc93;fill-opacity:1;stroke:none" />
  <rect
     id="rect982"
     x="20.937016"
     y="49.245583"
     width="38.333374"
     height="0.45476094"
     ry="0.14652386"
     stroke-width="3.85812"
     style="fill:none;stroke:#20cc93" />
  <rect
     id="rect984"
     x="47.446289"
     y="110.46746"
     width="55.405369"
     height="0.3345485"
     ry="0.10779142"
     stroke-width="3.97833"
     style="fill:none;stroke:#20cc93" />
  <rect
     id="rect986"
     x="95.019135"
     y="123.31585"
     width="26.243084"
     height="3.8118172"
     ry="1.2282056"
     stroke-width="9.2419"
     style="fill:#20cc93;fill-opacity:1;stroke:none" />
</svg>
