<?xml version="1.0" encoding="UTF-8" standalone="no"?>
<svg
   xmlns:dc="http://purl.org/dc/elements/1.1/"
   xmlns:cc="http://creativecommons.org/ns#"
   xmlns:rdf="http://www.w3.org/1999/02/22-rdf-syntax-ns#"
   xmlns:svg="http://www.w3.org/2000/svg"
   xmlns="http://www.w3.org/2000/svg"
   xmlns:sodipodi="http://sodipodi.sourceforge.net/DTD/sodipodi-0.dtd"
   xmlns:inkscape="http://www.inkscape.org/namespaces/inkscape"
   id="svg8"
   width="210mm"
   height="180mm"
   version="1.1"
   viewBox="0 0 210 180"
   sodipodi:docname="Email.svg"
   inkscape:version="1.0.2 (e86c870879, 2021-01-15, custom)">
  <metadata
     id="metadata1558">
    <rdf:RDF>
      <cc:Work
         rdf:about="">
        <dc:format>image/svg+xml</dc:format>
        <dc:type
           rdf:resource="http://purl.org/dc/dcmitype/StillImage" />
      </cc:Work>
    </rdf:RDF>
  </metadata>
  <defs
     id="defs1556" />
  <sodipodi:namedview
     pagecolor="#ffffff"
     bordercolor="#666666"
     borderopacity="1"
     objecttolerance="10"
     gridtolerance="10"
     guidetolerance="10"
     inkscape:pageopacity="0"
     inkscape:pageshadow="2"
     inkscape:window-width="1366"
     inkscape:window-height="705"
     id="namedview1554"
     showgrid="false"
     inkscape:zoom="0.27959362"
     inkscape:cx="325.81091"
     inkscape:cy="609.36303"
     inkscape:window-x="-8"
     inkscape:window-y="-8"
     inkscape:window-maximized="1"
     inkscape:current-layer="svg8" />
  <title
     id="title899">backend illustration vector art</title>
  <g
     id="g2129"
     style="stroke:#40d56a;stroke-opacity:1"
     transform="matrix(0.39458723,0,0,0.38244477,6.2875178,-9.8428955)">
    <g
       id="g2127"
       style="stroke:#40d56a;stroke-opacity:1">
      <rect
         height="358.87"
         style="fill:#f1f5f7;stroke:#40d56a;stroke-opacity:1"
         width="357.90399"
         x="77.044998"
         y="76.565002"
         id="rect2121" />
      <path
         d="m 256.002,293.738 178.947,141.697 v -279.74 z m 0,0"
         style="fill:#dce6ea;stroke:#40d56a;stroke-opacity:1"
         id="path2123" />
      <path
         d="M 449.861,76.565 H 434.949 L 256.002,218.26 77.045,76.565 H 62.134 c -24.693,0 -44.737,20.094 -44.737,44.858 v 269.152 c 0,24.759 20.044,44.859 44.737,44.859 H 77.045 V 155.694 L 256.002,293.708 434.949,155.661 v 279.773 h 14.912 c 24.699,0 44.742,-20.101 44.742,-44.859 V 121.424 C 494.604,96.66 474.561,76.565 449.861,76.565 Z m 0,0"
         style="fill:#20cc93;stroke:#40d56a;stroke-opacity:1;fill-opacity:1"
         id="path2125" />
    </g>
  </g>
  <g
     id="Layer_1"
     transform="matrix(0.38617395,0,0,0.38617395,6.4338837,-10.12842)" />
</svg>
