<?xml version="1.0" encoding="UTF-8"?>
<svg id="svg8" width="55.191mm" height="55.191mm" version="1.1" viewBox="0 0 55.191 55.191" xmlns="http://www.w3.org/2000/svg">
 <g id="layer1" transform="translate(282.6 -116.25)">
  <circle id="path853" cx="-255" cy="143.85" r="27.596" fill="#ffd52b" stroke-width=".28135"/>
  <path id="path857" d="m-228.31 148.85-2.2718 3.1404-1.7373 2.205-1.4032 1.5034-1.2695 1.47-1.7372 1.4032-1.3698 1.2695-3.3743 2.2718-3.1738 1.637-2.4722 0.96885-3.274 1.1693-3.9756 0.73499-3.4745 0.40091-3.675 0.0668-4.3431-0.33409-3.107-0.53454-3.0402-0.60136 2.489 1.7874 1.8208 0.98556 2.0713 0.91873 1.9043 0.7684 2.088 0.53454 2.0546 0.41761 2.1215 0.26727 2.5224 0.0334 2.7061-0.0167 2.5558-0.28398 1.9878-0.48442 2.7228-0.78511 1.6871-0.85192 1.8709-0.96885 1.8208-1.1693 2.1382-1.6871 1.5034-1.47 1.7372-1.8542 1.5201-1.9544 1.4199-2.2217 1.1359-2.1716 0.91874-2.2551 0.48443-1.6036 0.50113-1.7038s0.11693-0.55124 0.0835-0.73499c-0.0334-0.18375-0.16704-0.26727-0.16704-0.26727z" fill="#f7c12b"/>
  <g fill="#6e351d">
   <circle id="path859" cx="-243.24" cy="134.44" r="4.3113"/>
   <path id="path861" d="m-270.05 135.63s-0.28349 0.59059 0.23623 0.92132 1.0631-0.0236 1.0631-0.0236 1.6217-1.6867 2.9748-1.503c1.353 0.18374 2.6059 1.0524 2.6059 1.0524l0.86863 0.70158s0.13363 0.33409 0.86862-0.21715c0.73499-0.55125 0.0501-1.3865 0.0501-1.3865s-0.98555-1.2862-2.372-1.7038-3.4578-0.15034-3.4578-0.15034-0.71829 0-1.4032 0.41761c-0.68487 0.41761-1.1359 0.90204-1.2528 1.1192-0.11693 0.21716-0.18149 0.77234-0.18149 0.77234z"/>
   <path id="path863" d="m-262.67 143.18s2.3624 3.1656 6.9926 3.2128c4.6302 0.0472 6.6618-2.5513 6.6618-2.5513s0.46066-1.0453 0.98628-0.86816 0.61421 0.32482 0.63193 0.44294c0.0177 0.11812 6e-3 0.64374-0.0413 0.79729-0.0472 0.15356-1.2461 4.7779-8.2623 4.2581-7.0162-0.51971-7.6068-4.205-7.6068-4.205s-0.31517-0.68786 0.0189-0.98854c0.33409-0.30068 0.61891-0.0982 0.61891-0.0982z"/>
  </g>
 </g>
</svg>
