<?xml version="1.0" encoding="UTF-8"?>
<svg id="svg8" width="210mm" height="180mm" version="1.1" viewBox="0 0 210 180" xmlns="http://www.w3.org/2000/svg">
 <title id="title899">Soroush Bot dev illustration art</title>
 <g id="g841" transform="translate(-.75595 -129.27)" fill="none" stroke="#20cc93">
  <rect id="rect835" x="11.339" y="143.63" width="189.74" height="130.02" ry=".12179" stroke-width="4.5"/>
  <rect id="rect837" x="13.828" y="165.87" width="184.85" height=".15579" ry=".040158" stroke-width="4.8167"/>
 </g>
 <g id="g840" fill="none" stroke-width="4.5">
  <circle id="path851" cx="185.53" cy="25.481" r="5.8799" stroke="#f8003b"/>
  <circle id="circle853" cx="164.93" cy="25.481" r="5.8799" stroke="#f8b500"/>
  <circle id="circle855" cx="144.68" cy="25.481" r="5.8799" stroke="#00f814"/>
 </g>
 <rect id="rect900" x="12.711" y="38.559" width="133.93" height="104.59" rx="0" ry=".78548" fill="#c0ffa5" stroke="#20cc93" stroke-width="1.0847"/>
 <rect id="rect997" x="146.08" y="39.084" width="52.17" height="103.5" ry="0" fill="#19ae7c" stroke-width="1.8098"/>
 <rect id="rect2214" x="150.82" y="42.156" width="43.224" height="13.25" ry=".39547" fill="none" opacity=".998" stroke="#0072ff" stroke-width=".66884"/>
 <g id="g1052" fill="#54ffc5">
  <rect id="rect2216" x="152.78" y="43.942" width="29.217" height="9.5223" ry=".24714" opacity=".998"/>
  <circle id="path2226" cx="190.4" cy="48.648" r="4.7277" opacity=".998"/>
 </g>
 <rect id="rect2230" x="150.47" y="59.93" width="43.614" height="13.247" ry=".39538" fill="none" opacity=".998" stroke="#0072ff" stroke-width=".67178"/>
 <g id="g1018" transform="translate(0 15.204)" fill="#54ffc5">
  <rect id="rect1014" x="152.78" y="43.942" width="29.217" height="9.5223" ry=".24714" opacity=".998"/>
  <circle id="circle1016" cx="190.4" cy="48.648" r="4.7277" opacity=".998"/>
 </g>
 <g id="g1024" transform="translate(0 30.932)" fill="#54ffc5">
  <rect id="rect1020" x="152.78" y="43.942" width="29.217" height="9.5223" ry=".24714" opacity=".998"/>
  <circle id="circle1022" cx="190.4" cy="48.648" r="4.7277" opacity=".998"/>
 </g>
 <g id="g1030" transform="translate(0 45.722)" fill="#54ffc5">
  <rect id="rect1026" x="152.78" y="43.942" width="29.217" height="9.5223" ry=".24714" opacity=".998"/>
  <circle id="circle1028" cx="190.4" cy="48.648" r="4.7277" opacity=".998"/>
 </g>
 <rect id="rect1032" x="150.47" y="105.65" width="43.614" height="13.247" ry=".39538" fill="none" opacity=".998" stroke="#0072ff" stroke-width=".67178"/>
 <g id="g1038" transform="translate(0 60.926)" fill="#54ffc5">
  <rect id="rect1034" x="152.78" y="43.942" width="29.217" height="9.5223" ry=".24714" opacity=".998"/>
  <circle id="circle1036" cx="190.4" cy="48.648" r="4.7277" opacity=".998"/>
 </g>
 <g id="g1044" transform="translate(0 76.654)" fill="#54ffc5">
  <rect id="rect1040" x="152.78" y="43.942" width="29.217" height="9.5223" ry=".24714" opacity=".998"/>
  <circle id="circle1042" cx="190.4" cy="48.648" r="4.7277" opacity=".998"/>
 </g>
 <g>
  <rect id="rect1048" x="18.583" y="125.93" width="120.66" height="13.617" ry=".3534" fill="#54ffc5" opacity=".998" stroke-width="2.4301"/>
  <path id="Shape" d="m123.84 138.62 13.67-5.8587-13.67-5.8588v4.5568l9.7646 1.302-9.7646 1.3019z" fill="#08432f" fill-rule="evenodd"/>
  <g id="g1095" transform="matrix(.17702 0 0 .17702 .012977 36.614)" fill="#08432f">
   <g id="_x31_99_x2C__robot_x2C__Android_x2C__artificial_x2C__bot_x2C__technology" fill="#08432f">
    <g id="g1079" fill="#08432f">
     <path id="path1077" d="m337.67 164.92v41.686h43.487c0.31 0 0.593-0.143 0.808-0.356l0.095-0.071c0.167-0.214 0.261-0.498 0.261-0.783v-39.24c0-0.355-0.142-0.664-0.355-0.877-0.215-0.215-0.523-0.357-0.879-0.357h-43.417zm-166.24 41.686v-41.686h-44.651v41.686h20.249zm54.431 134.45h-26.917v84.911h26.917zm84.294 0h-26.942v84.911h26.942zm2.99 90.751h-34.775v23.524h56.899v-23.524zm-135.88-185.23c0 0.166 0.07 0.309 0.165 0.403 0.12 0.095 0.262 0.166 0.428 0.166h153.37c0.165 0 0.309-0.071 0.427-0.166 0.095-0.095 0.167-0.237 0.167-0.403v-81.66h-154.56v42.444zm154.56 6.385-0.594 0.024h-153.37l-0.593-0.024v78.787c0 0.949 0.404 1.828 1.02 2.445 0.618 0.641 1.497 1.021 2.446 1.021h147.63c0.95 0 1.827-0.381 2.445-0.998 0.617-0.641 1.021-1.495 1.021-2.469v-78.786zm-40.594-41.019h-73.374c-4.582 0-8.758-1.876-11.773-4.89-3.039-3.039-4.915-7.217-4.915-11.799v-1.211c0-4.914 2.018-9.4 5.247-12.629 3.229-3.252 7.714-5.27 12.652-5.27h70.954c4.938 0 9.425 2.018 12.653 5.27 3.227 3.229 5.245 7.715 5.245 12.629v1.211c0 4.51-1.805 8.617-4.747 11.632l-0.142 0.167c-3.04 3.014-7.218 4.89-11.8 4.89zm-73.374-5.816h73.374c2.968 0 5.698-1.234 7.669-3.204l0.142-0.143c1.876-1.947 3.038-4.605 3.038-7.525v-1.211c0-3.299-1.354-6.314-3.536-8.498-2.185-2.184-5.199-3.561-8.522-3.561h-70.954c-3.323 0-6.338 1.377-8.521 3.561-2.185 2.184-3.538 5.199-3.538 8.498v1.211c0 2.967 1.211 5.697 3.182 7.668 1.97 1.97 4.699 3.204 7.666 3.204zm12.108-47.049h49.161v-20.201h-49.161zm77.598-45.909v-39.073c0-2.374-0.973-4.558-2.539-6.124-1.567-1.566-3.752-2.541-6.124-2.541h-88.709c-2.375 0-4.535 0.975-6.102 2.541-1.59 1.566-2.563 3.75-2.563 6.124v39.073zm-80.59 19.868h71.927c2.372 0 4.557-0.973 6.124-2.54 1.566-1.566 2.539-3.727 2.539-6.1v-5.39h-106.04v5.39c0 2.373 0.974 4.533 2.563 6.1 1.567 1.567 3.727 2.54 6.102 2.54zm6.528-50.586c-1.258-1.233-2.99-2.018-4.914-2.018s-3.655 0.784-4.913 2.018c-1.258 1.259-2.018 2.991-2.018 4.915 0 1.922 0.76 3.654 2.018 4.889 1.258 1.259 2.99 2.042 4.913 2.042 1.899 0 3.655-0.783 4.891-2.042 1.258-1.234 2.041-2.967 2.041-4.889-1e-3 -1.924-0.783-3.656-2.018-4.915zm-4.914-7.856c3.513 0 6.694 1.424 9.021 3.75l0.022 0.023c2.302 2.303 3.727 5.484 3.727 8.998 0 3.512-1.447 6.717-3.75 9.02-2.304 2.326-5.508 3.751-9.021 3.751s-6.694-1.425-9.021-3.751l-0.023-0.023c-2.302-2.303-3.727-5.484-3.727-8.996 0-3.514 1.425-6.695 3.75-9.021l0.024-0.023c2.304-2.304 5.486-3.728 8.998-3.728zm56.83 7.856c-1.259-1.233-2.992-2.018-4.914-2.018-1.853 0-3.537 0.712-4.772 1.899l-0.117 0.143c-1.259 1.234-2.043 2.99-2.043 4.891 0 1.922 0.784 3.654 2.018 4.889 1.259 1.259 2.992 2.042 4.915 2.042 1.922 0 3.655-0.783 4.914-2.042 1.258-1.234 2.018-2.967 2.018-4.889-2e-3 -1.924-0.761-3.656-2.019-4.915zm-4.914-7.856c3.514 0 6.718 1.424 9.02 3.75l0.024 0.023c2.303 2.303 3.728 5.484 3.728 8.998 0 3.512-1.425 6.717-3.752 9.02-2.302 2.326-5.506 3.751-9.02 3.751-3.515 0-6.694-1.425-9.021-3.751l-0.024-0.023c-2.303-2.303-3.726-5.484-3.726-8.996 0-3.514 1.447-6.719 3.75-9.021l0.214-0.213c2.302-2.186 5.411-3.538 8.807-3.538zm100.67 137.85h-18.278v86.692h19.418v-86.692zm-234.98 0h-19.418v86.692h19.418zm194.91 219.36v23.524h7.146v-23.524zm-164.58 0v23.524h56.901v-23.524h-37.483zm-5.84 23.524v-23.524h-7.121v23.524zm135.52-224.63c-0.64-0.617-1.518-1.021-2.491-1.021s-1.852 0.404-2.469 1.021c-0.641 0.641-1.044 1.52-1.044 2.492s0.403 1.852 1.044 2.492c0.617 0.617 1.495 1.021 2.469 1.021s1.852-0.404 2.491-1.021c0.618-0.641 1.021-1.52 1.021-2.492s-0.379-1.851-1.021-2.492zm-2.491-6.836c2.563 0 4.913 1.044 6.6 2.729 1.71 1.709 2.753 4.035 2.753 6.599 0 2.588-1.043 4.938-2.73 6.623-1.709 1.686-4.036 2.73-6.622 2.73-2.563 0-4.913-1.045-6.6-2.73-1.685-1.686-2.753-4.035-2.753-6.623 0-2.563 1.068-4.89 2.753-6.599 1.708-1.685 4.035-2.729 6.599-2.729zm-30.291 6.86c-0.64-0.641-1.52-1.045-2.491-1.045-0.974 0-1.852 0.404-2.493 1.021-0.616 0.641-1.02 1.52-1.02 2.492s0.403 1.852 1.02 2.492c0.642 0.641 1.52 1.021 2.493 1.021 0.972 0 1.852-0.381 2.491-1.021 0.618-0.641 1.021-1.52 1.021-2.492s-0.403-1.851-1.021-2.468zm-2.492-6.86c2.563 0 4.913 1.044 6.6 2.729 1.709 1.709 2.753 4.035 2.753 6.599s-1.044 4.914-2.753 6.6c-1.687 1.709-4.036 2.754-6.6 2.754s-4.913-1.045-6.6-2.73c-1.709-1.709-2.753-4.059-2.753-6.623 0-2.563 1.044-4.89 2.753-6.599 1.687-1.686 4.037-2.73 6.6-2.73zm-30.29 6.836c-0.64-0.617-1.52-1.021-2.492-1.021-0.974 0-1.851 0.404-2.493 1.021-0.616 0.641-1.02 1.52-1.02 2.492s0.403 1.852 1.02 2.492c0.642 0.617 1.52 1.021 2.493 1.021 0.972 0 1.852-0.404 2.469-1.021 0.64-0.641 1.044-1.52 1.044-2.492s-0.403-1.851-1.021-2.492zm-2.492-6.836c2.564 0 4.891 1.044 6.6 2.729 1.685 1.709 2.753 4.035 2.753 6.599 0 2.588-1.069 4.938-2.753 6.623-1.686 1.686-4.036 2.73-6.6 2.73-2.588 0-4.915-1.045-6.624-2.73-1.685-1.686-2.729-4.035-2.729-6.623 0-2.563 1.044-4.89 2.729-6.599 1.709-1.685 4.061-2.729 6.624-2.729zm-30.29 6.86c-0.64-0.641-1.52-1.045-2.492-1.045-0.974 0-1.851 0.404-2.494 1.021-0.64 0.641-1.019 1.52-1.019 2.492s0.379 1.852 1.019 2.492c0.643 0.641 1.52 1.021 2.494 1.021 0.972 0 1.852-0.381 2.469-1.021 0.64-0.641 1.044-1.52 1.044-2.492s-0.404-1.851-1.021-2.468zm16.735 44.722c1.116 0 2.255-0.736 2.635-1.638 0.974-1.946-0.523-4.202-2.635-4.202h-5.84c-1.092 0-2.23 0.713-2.611 1.639-0.972 1.946 0.523 4.201 2.611 4.201zm23.334 0c1.116 0 2.255-0.736 2.636-1.638 0.949-1.946-0.523-4.202-2.636-4.202h-5.84c-1.091 0-2.255 0.713-2.611 1.639-0.972 1.946 0.498 4.201 2.611 4.201zm23.334 0c1.092 0 2.255-0.736 2.611-1.638 0.974-1.946-0.498-4.202-2.611-4.202h-5.839c-1.092 0-2.255 0.713-2.611 1.639-0.973 1.946 0.498 4.201 2.611 4.201zm23.335 0c1.092 0 2.255-0.736 2.611-1.638 0.974-1.946-0.498-4.202-2.611-4.202h-5.84c-1.091 0-2.255 0.713-2.61 1.639-0.973 1.946 0.498 4.201 2.61 4.201zm19.039 0c1.115 0 2.256-0.736 2.635-1.638 0.974-1.946-0.521-4.202-2.635-4.202h-1.544c-1.116 0-2.255 0.713-2.634 1.639-0.949 1.946 0.521 4.201 2.634 4.201zm-118.19-5.839c-1.116 0-2.255 0.713-2.636 1.639-0.972 1.946 0.523 4.201 2.636 4.201h5.815c1.116 0 2.257-0.736 2.636-1.638 0.974-1.946-0.523-4.202-2.636-4.202zm29.15 23.476c1.116 0 2.255-0.711 2.635-1.637 0.974-1.947-0.523-4.202-2.635-4.202h-5.84c-1.092 0-2.23 0.712-2.611 1.638-0.972 1.947 0.523 4.201 2.611 4.201zm23.334 0c1.116 0 2.255-0.711 2.636-1.637 0.949-1.947-0.523-4.202-2.636-4.202h-5.84c-1.091 0-2.255 0.712-2.611 1.638-0.972 1.947 0.498 4.201 2.611 4.201zm23.334 0c1.092 0 2.255-0.711 2.611-1.637 0.974-1.947-0.498-4.202-2.611-4.202h-5.839c-1.092 0-2.255 0.712-2.611 1.638-0.973 1.947 0.498 4.201 2.611 4.201zm23.335 0c1.092 0 2.255-0.711 2.611-1.637 0.974-1.947-0.498-4.202-2.611-4.202h-5.84c-1.091 0-2.255 0.712-2.61 1.638-0.973 1.947 0.498 4.201 2.61 4.201zm19.039 0c1.115 0 2.256-0.711 2.635-1.637 0.974-1.947-0.521-4.202-2.635-4.202h-1.544c-1.116 0-2.255 0.712-2.634 1.638-0.949 1.947 0.521 4.201 2.634 4.201zm-118.19-5.839c-1.116 0-2.255 0.712-2.636 1.638-0.972 1.947 0.523 4.201 2.636 4.201h5.815c1.116 0 2.257-0.711 2.636-1.637 0.974-1.947-0.523-4.202-2.636-4.202zm29.15 23.501c1.116 0 2.255-0.736 2.635-1.662 0.974-1.946-0.523-4.178-2.635-4.178h-5.84c-1.092 0-2.23 0.712-2.611 1.639-0.972 1.945 0.523 4.201 2.611 4.201zm23.334 0c1.116 0 2.255-0.736 2.636-1.662 0.949-1.946-0.523-4.178-2.636-4.178h-5.84c-1.091 0-2.255 0.712-2.611 1.639-0.972 1.945 0.498 4.201 2.611 4.201zm23.334 0c1.092 0 2.255-0.736 2.611-1.662 0.974-1.946-0.498-4.178-2.611-4.178h-5.839c-1.092 0-2.255 0.712-2.611 1.639-0.973 1.945 0.498 4.201 2.611 4.201zm23.335 0c1.092 0 2.255-0.736 2.611-1.662 0.974-1.946-0.498-4.178-2.611-4.178h-5.84c-1.091 0-2.255 0.712-2.61 1.639-0.973 1.945 0.498 4.201 2.61 4.201zm19.039 0c1.115 0 2.256-0.736 2.635-1.662 0.974-1.946-0.521-4.178-2.635-4.178h-1.544c-1.116 0-2.255 0.712-2.634 1.639-0.949 1.945 0.521 4.201 2.634 4.201zm-118.19-5.84c-1.116 0-2.255 0.712-2.636 1.639-0.972 1.945 0.523 4.201 2.636 4.201h5.815c1.116 0 2.257-0.736 2.636-1.662 0.974-1.946-0.523-4.178-2.636-4.178zm126.71-219.13c0 1.592-1.281 2.873-2.848 2.92h5.743v29.293h-11.655v-29.293h5.77c-1.592-0.047-2.85-1.328-2.85-2.92v-38.076c0-1.566 1.258-2.872 2.85-2.92h-0.049c-2.564-0.023-4.866-1.067-6.527-2.753-1.709-1.686-2.754-4.036-2.754-6.646 0-2.587 1.045-4.938 2.754-6.646 1.686-1.686 4.035-2.729 6.646-2.729 2.588 0 4.938 1.044 6.646 2.729 1.686 1.709 2.754 4.06 2.754 6.646 0 2.61-1.068 4.961-2.754 6.646s-3.988 2.729-6.527 2.753h-0.047c1.566 0.048 2.848 1.354 2.848 2.92zm-129.4 0c0 1.592-1.258 2.873-2.824 2.92h5.744v29.293h-11.655v-29.293h5.745c-1.567-0.047-2.825-1.328-2.825-2.92v-38.076c0-1.566 1.258-2.872 2.825-2.92h-0.047c-2.541-0.023-4.843-1.067-6.505-2.753-1.709-1.686-2.753-4.036-2.753-6.646 0-2.587 1.044-4.938 2.753-6.646 1.687-1.686 4.036-2.729 6.647-2.729 2.588 0 4.938 1.044 6.623 2.729 1.709 1.709 2.753 4.06 2.753 6.646 0 2.61-1.044 4.961-2.753 6.646-1.662 1.686-3.964 2.729-6.503 2.753h-0.048c1.565 0.048 2.824 1.354 2.824 2.92v38.076zm-69.148 388.66c-1.614 0-2.92-1.306-2.92-2.92 0-1.59 1.306-2.92 2.92-2.92h189.72c1.614 0 2.92 1.33 2.92 2.92 0 1.614-1.306 2.92-2.92 2.92zm111.09 11.561c-1.614 0-2.92-1.33-2.92-2.92 0-1.614 1.306-2.92 2.92-2.92h131.27c1.612 0 2.92 1.306 2.92 2.92 0 1.59-1.308 2.92-2.92 2.92zm144.71 0c-1.614 0-2.92-1.33-2.92-2.92 0-1.614 1.306-2.92 2.92-2.92h16.428c1.59 0 2.92 1.306 2.92 2.92 0 1.59-1.33 2.92-2.92 2.92zm-263.28-0.356c-1.614 0-2.92-1.306-2.92-2.92s1.306-2.92 2.92-2.92h62.218c1.59 0 2.895 1.306 2.895 2.92s-1.305 2.92-2.895 2.92zm89.233-261.78c2.564 0 4.889 1.044 6.598 2.729 1.686 1.709 2.73 4.035 2.73 6.599s-1.044 4.914-2.73 6.6c-1.709 1.709-4.034 2.754-6.598 2.754-2.563 0-4.915-1.045-6.6-2.73-1.709-1.709-2.753-4.059-2.753-6.623 0-2.563 1.044-4.89 2.729-6.599 1.709-1.686 4.06-2.73 6.624-2.73z" clip-rule="evenodd" fill="#08432f" fill-rule="evenodd"/>
    </g>
   </g>
  </g>
  <rect id="rect1097" x="84.77" y="44.739" width="52.728" height="64.727" fill="#54ffc5" opacity=".998"/>
 </g>
 <g fill="#19ae7c">
  <rect id="rect1099" x="90.793" y="49.666" width="41.243" height="4.5437" opacity=".998"/>
  <rect id="rect1101" x="90.793" y="59.058" width="41.243" height="4.5437" opacity=".998"/>
  <rect id="rect1103" x="90.793" y="68.449" width="41.243" height="4.5437" opacity=".998"/>
  <rect id="rect1105" x="90.793" y="77.453" width="41.243" height="4.5437" opacity=".998"/>
  <rect id="rect1107" x="90.793" y="86.844" width="41.243" height="4.5437" opacity=".998"/>
  <rect id="rect1109" x="90.793" y="96.236" width="41.243" height="4.5437" opacity=".998"/>
 </g>
</svg>
